<?xml version="1.0" encoding="UTF-8" standalone="no"?>
<!-- Created with Inkscape (http://www.inkscape.org/) -->

<svg
   xmlns:dc="http://purl.org/dc/elements/1.1/"
   xmlns:cc="http://creativecommons.org/ns#"
   xmlns:rdf="http://www.w3.org/1999/02/22-rdf-syntax-ns#"
   xmlns:svg="http://www.w3.org/2000/svg"
   xmlns="http://www.w3.org/2000/svg"
   xmlns:xlink="http://www.w3.org/1999/xlink"
   xmlns:sodipodi="http://sodipodi.sourceforge.net/DTD/sodipodi-0.dtd"
   xmlns:inkscape="http://www.inkscape.org/namespaces/inkscape"
   width="256"
   height="256"
   viewBox="0 0 256 256"
   version="1.1"
   id="svg8"
   inkscape:version="0.92.3 (2405546, 2018-03-11)"
   sodipodi:docname="Erudite_Button_Options_Pressed.svg">
  <defs
     id="defs2">
    <pattern
       inkscape:collect="always"
       xlink:href="#Strips1_1"
       id="pattern2479"
       patternTransform="matrix(10.662153,0,0,10.662153,-3606.6962,1196.9293)" />
    <pattern
       inkscape:isstock="true"
       inkscape:stockid="Stripes 1:1"
       id="Strips1_1"
       patternTransform="translate(0,0) scale(10,10)"
       height="1"
       width="2"
       patternUnits="userSpaceOnUse"
       inkscape:collect="always">
      <rect
         id="rect1698"
         height="2"
         width="1"
         y="-0.5"
         x="0"
         style="fill:black;stroke:none" />
    </pattern>
    <pattern
       patternUnits="userSpaceOnUse"
       width="142.83945"
       height="142.83945"
       patternTransform="translate(3378.2736,-1127.0317)"
       id="pattern2487">
      <circle
         r="71.419724"
         cy="71.419724"
         cx="71.419724"
         id="circle2471"
         style="opacity:1;fill:url(#pattern2479);fill-opacity:1;stroke:none;stroke-width:8.28007412;stroke-linecap:round;stroke-linejoin:miter;stroke-miterlimit:4;stroke-dasharray:none;stroke-opacity:1" />
    </pattern>
  </defs>
  <sodipodi:namedview
     id="base"
     pagecolor="#272822"
     bordercolor="#666666"
     borderopacity="1.0"
     inkscape:pageopacity="0"
     inkscape:pageshadow="2"
     inkscape:zoom="0.90183736"
     inkscape:cx="82.476723"
     inkscape:cy="139.39464"
     inkscape:document-units="px"
     inkscape:current-layer="layer1"
     showgrid="true"
     showborder="true"
     units="px"
     inkscape:showpageshadow="false"
     objecttolerance="10"
     inkscape:window-width="1920"
     inkscape:window-height="1050"
     inkscape:window-x="0"
     inkscape:window-y="0"
     inkscape:window-maximized="1"
     inkscape:snap-grids="false"
     inkscape:snap-page="true"
     showguides="false">
    <inkscape:grid
       type="xygrid"
       id="grid815"
       empspacing="64"
       dotted="false"
       enabled="true"
       visible="false"
       snapvisiblegridlinesonly="true"
       spacingx="1"
       spacingy="1"
       color="#ff3fff"
       opacity="0.1254902" />
  </sodipodi:namedview>
  <metadata
     id="metadata5">
    <rdf:RDF>
      <cc:Work
         rdf:about="">
        <dc:format>image/svg+xml</dc:format>
        <dc:type
           rdf:resource="http://purl.org/dc/dcmitype/StillImage" />
        <dc:title />
      </cc:Work>
    </rdf:RDF>
  </metadata>
  <g
     inkscape:label="Layer 1"
     inkscape:groupmode="layer"
     id="layer1"
     transform="translate(0,-794.0667)">
    <path
       sodipodi:nodetypes="sssssssss"
       inkscape:connector-curvature="0"
       id="path3022"
       d="M 69.028101,794.06691 H 186.97006 c 38.24197,0 69.02947,30.7826 69.02947,69.01952 v 117.96069 c 0,38.23688 -30.7875,69.01958 -69.02947,69.01958 H 69.028101 c -38.241081,0 -69.0285731577,-30.7827 -69.0285731577,-69.01958 V 863.08643 c 0,-38.23692 30.7874921577,-69.01952 69.0285731577,-69.01952 z"
       style="opacity:1;fill:#91c43f;fill-opacity:1;stroke:none;stroke-width:3;stroke-linecap:round;stroke-linejoin:round;stroke-miterlimit:4;stroke-dasharray:none;stroke-opacity:1" />
    <path
       sodipodi:nodetypes="csssscssc"
       inkscape:connector-curvature="0"
       style="opacity:1;fill:#465e1e;fill-opacity:1;stroke:none;stroke-width:3;stroke-linecap:round;stroke-linejoin:round;stroke-miterlimit:4;stroke-dasharray:none;stroke-opacity:1"
       d="m -4.721577e-4,961.04663 v 20.00004 c 0,38.23683 30.7874921577,69.01953 69.0285731577,69.01953 H 186.97006 c 38.24197,0 69.02947,-30.7827 69.02947,-69.01953 v -20.00004 c 0,38.23692 -30.7875,69.01957 -69.02947,69.01957 H 69.028101 c -38.241081,0 -69.0285731577,-30.78265 -69.0285731577,-69.01957 z"
       id="path3024" />
    <path
       sodipodi:nodetypes="csssscssc"
       id="path3026"
       d="m -4.721577e-4,883.08629 v -19.99995 c 0,-38.23692 30.7874921577,-69.01961 69.0285731577,-69.01961 H 186.97006 c 38.24197,0 69.02947,30.78269 69.02947,69.01961 v 19.99995 c 0,-38.23683 -30.7875,-69.01952 -69.02947,-69.01952 H 69.028101 c -38.241081,0 -69.0285731577,30.78269 -69.0285731577,69.01952 z"
       style="opacity:1;fill:#a6df48;fill-opacity:1;stroke:none;stroke-width:3;stroke-linecap:round;stroke-linejoin:round;stroke-miterlimit:4;stroke-dasharray:none;stroke-opacity:1"
       inkscape:connector-curvature="0" />
    <circle
       cy="922.06671"
       cx="128.00031"
       id="circle3030"
       style="opacity:1;fill:#759e33;fill-opacity:1;stroke:none;stroke-width:50;stroke-linecap:round;stroke-linejoin:round;stroke-miterlimit:4;stroke-dasharray:none;stroke-dashoffset:0;stroke-opacity:1"
       r="90" />
    <g
       aria-label="i"
       transform="scale(1.0000649,0.9999351)"
       style="font-style:normal;font-variant:normal;font-weight:normal;font-stretch:normal;font-size:204.31620789px;line-height:1.25;font-family:'Open Sans';-inkscape-font-specification:'Open Sans';font-variant-ligatures:normal;font-variant-caps:normal;font-variant-numeric:normal;font-feature-settings:normal;text-align:start;letter-spacing:0px;word-spacing:0px;writing-mode:lr-tb;text-anchor:start;fill:#f8f8f0;fill-opacity:1;stroke:none;stroke-width:1"
       id="text3034">
      <path
         d="m 102.89256,973.82662 9.2,-60 q 0.6,-3.8 2.2,-7.2 1.8,-3.4 4.4,-6 2.6,-2.8 6,-4.4 3.4,-1.6 7.4,-1.6 4,0 6.6,1.6 2.8,1.4 4.4,3.8 1.8,2.4 2.4,5.6 0.8,3 0.8,6.2 v 5.2 l -9.2,58.4 q -1.2,7.2 -7.2,11.6 -6,4.2 -12.8,4.2 -6.6,0 -10.4,-4.6 -3.8,-4.6 -3.8,-10.8 z m 15.8,-101.2 q 0,-4 1.6,-7.6 1.6,-3.6 4.4,-6.2 2.8,-2.8 6.4,-4.2 3.6,-1.6 7.6,-1.6 4.6,0 8.8,2.8 4.2,2.6 5.4,7.2 0,0.4 0,2.4 0.2,2 0.2,2.6 0,8.4 -5.6,13.8 -5.4,5.4 -13.8,5.4 -6.4,0 -10.8,-4 -4.2,-4.2 -4.2,-10.6 z"
         style="font-style:normal;font-variant:normal;font-weight:normal;font-stretch:normal;font-size:200px;font-family:'Kaliber Round BRK';-inkscape-font-specification:'Kaliber Round BRK';fill:#f8f8f0;stroke-width:0.17183752"
         id="path824" />
    </g>
  </g>
</svg>
