<?xml version="1.0" encoding="UTF-8" standalone="no"?>
<!-- Created with Inkscape (http://www.inkscape.org/) -->

<svg
   xmlns:dc="http://purl.org/dc/elements/1.1/"
   xmlns:cc="http://creativecommons.org/ns#"
   xmlns:rdf="http://www.w3.org/1999/02/22-rdf-syntax-ns#"
   xmlns:svg="http://www.w3.org/2000/svg"
   xmlns="http://www.w3.org/2000/svg"
   xmlns:xlink="http://www.w3.org/1999/xlink"
   xmlns:sodipodi="http://sodipodi.sourceforge.net/DTD/sodipodi-0.dtd"
   xmlns:inkscape="http://www.inkscape.org/namespaces/inkscape"
   width="1024"
   height="2048"
   viewBox="0 0 270.93333 541.86668"
   version="1.1"
   id="svg8"
   inkscape:version="0.92.3 (2405546, 2018-03-11)"
   sodipodi:docname="Erudite_Character.svg">
  <defs
     id="defs2">
    <inkscape:path-effect
       effect="bspline"
       id="path-effect4469"
       is_visible="true"
       weight="33.333333"
       steps="2"
       helper_size="0"
       apply_no_weight="true"
       apply_with_weight="true"
       only_selected="false" />
    <inkscape:path-effect
       effect="spiro"
       id="path-effect4465"
       is_visible="true" />
    <inkscape:path-effect
       effect="bspline"
       id="path-effect4461"
       is_visible="true"
       weight="33.333333"
       steps="2"
       helper_size="0"
       apply_no_weight="true"
       apply_with_weight="true"
       only_selected="false" />
    <inkscape:path-effect
       effect="bspline"
       id="path-effect4457"
       is_visible="true"
       weight="33.333333"
       steps="2"
       helper_size="0"
       apply_no_weight="true"
       apply_with_weight="true"
       only_selected="false" />
    <inkscape:path-effect
       effect="bspline"
       id="path-effect4451"
       is_visible="true"
       weight="33.333333"
       steps="2"
       helper_size="0"
       apply_no_weight="true"
       apply_with_weight="true"
       only_selected="false" />
  </defs>
  <sodipodi:namedview
     id="base"
     pagecolor="#ffffff"
     bordercolor="#666666"
     borderopacity="1.0"
     inkscape:pageopacity="0.0"
     inkscape:pageshadow="2"
     inkscape:zoom="0.25"
     inkscape:cx="387.20642"
     inkscape:cy="914.13096"
     inkscape:document-units="mm"
     inkscape:current-layer="layer1"
     showgrid="false"
     inkscape:snap-global="true"
     showguides="false"
     inkscape:window-width="1920"
     inkscape:window-height="1050"
     inkscape:window-x="0"
     inkscape:window-y="0"
     inkscape:window-maximized="1"
     units="px" />
  <metadata
     id="metadata5">
    <rdf:RDF>
      <cc:Work
         rdf:about="">
        <dc:format>image/svg+xml</dc:format>
        <dc:type
           rdf:resource="http://purl.org/dc/dcmitype/StillImage" />
        <dc:title></dc:title>
      </cc:Work>
    </rdf:RDF>
  </metadata>
  <g
     inkscape:label="Layer 1"
     inkscape:groupmode="layer"
     id="layer1"
     transform="translate(0,244.86668)">
    <g
       id="g1181"
       transform="matrix(-10.056922,0.29121801,0.29121801,10.056922,2391.3814,-2045.6548)"
       style="stroke-width:0.09939233">
      <path
         sodipodi:nodetypes="cscscccccscccc"
         inkscape:connector-curvature="0"
         id="path1171"
         d="m 230.55766,206.21609 c 0.21085,0.65396 0.46227,1.69036 0.71781,2.35227 0.25644,0.66423 0.13181,1.07716 0.48692,1.7243 0.3054,1.64861 0.33905,3.24559 0.63789,4.85422 0.29884,1.60863 0.86286,3.22892 0.69527,4.83895 -0.33773,0.96345 0.0215,1.82036 -0.40709,2.61151 0.49891,0.65868 1.09995,0.83177 1.84388,0.32554 l -0.0836,-1.76805 c 0.13469,-0.71092 0.003,-1.39187 -0.0905,-2.37152 -0.0249,-1.24893 0.29145,-2.14822 0.22992,-4.21539 -0.0691,-2.32218 -0.66918,-3.00386 -0.82585,-4.54943 0.076,-0.55364 7.5e-4,-1.31849 -0.20267,-1.79315 -0.007,-1.35243 0.13592,-3.88634 0.13592,-3.88634 z"
         style="fill:#605757;fill-opacity:1;stroke:none;stroke-width:0.00890304;stroke-linecap:butt;stroke-linejoin:miter;stroke-miterlimit:4;stroke-dasharray:none;stroke-opacity:1" />
      <path
         sodipodi:nodetypes="ccccccccc"
         inkscape:connector-curvature="0"
         id="path1173"
         d="m 232.69727,222.59077 c 0.58989,0.54378 0.90875,0.29067 1.55538,0.0813 0.24457,-0.65556 0.0472,-0.97001 0.22069,-1.38707 l 0.11409,1.13828 -0.0352,0.54584 c 0.0155,0.59929 0.20766,1.1335 0.0285,1.6419 -0.28205,0.70039 -1.57436,0.79708 -2.49704,0.32659 0.0362,-0.76333 -0.10562,-0.80816 0.30392,-1.62501 z"
         style="fill:#3d3b3a;fill-opacity:1;stroke:none;stroke-width:0.0034608;stroke-linecap:butt;stroke-linejoin:miter;stroke-miterlimit:4;stroke-dasharray:none;stroke-opacity:1" />
      <ellipse
         transform="rotate(0.3672095)"
         style="opacity:1;fill:#c8c6c6;fill-opacity:1;stroke:none;stroke-width:0.00646051;stroke-linecap:round;stroke-linejoin:bevel;stroke-miterlimit:4;stroke-dasharray:none;stroke-dashoffset:0;stroke-opacity:1;paint-order:normal"
         id="ellipse1175"
         cx="235.05821"
         cy="222.44893"
         rx="0.56449455"
         ry="0.19171514" />
      <ellipse
         transform="rotate(4.0353896)"
         ry="0.074555889"
         rx="0.18106429"
         cy="207.08475"
         cx="247.86041"
         id="ellipse1177"
         style="opacity:1;fill:#dbd9d8;fill-opacity:1;stroke:none;stroke-width:0.00228174;stroke-linecap:round;stroke-linejoin:bevel;stroke-miterlimit:4;stroke-dasharray:none;stroke-dashoffset:0;stroke-opacity:1;paint-order:normal" />
      <path
         style="fill:none;stroke:#3d3b3a;stroke-width:0.02407452;stroke-linecap:round;stroke-linejoin:bevel;stroke-miterlimit:4;stroke-dasharray:none;stroke-opacity:1"
         d="m 232.96648,221.91915 c 0.82041,-0.47805 1.30908,0.0879 1.39885,0.36283"
         id="path1179"
         inkscape:connector-curvature="0"
         sodipodi:nodetypes="cc" />
    </g>
    <g
       id="g1169"
       transform="matrix(10.061137,0,0,10.061137,-2173.3803,-1980.964)"
       style="stroke-width:0.09939233">
      <path
         style="fill:#605757;fill-opacity:1;stroke:none;stroke-width:0.00890304;stroke-linecap:butt;stroke-linejoin:miter;stroke-miterlimit:4;stroke-dasharray:none;stroke-opacity:1"
         d="m 230.55766,206.21609 c 0.21085,0.65396 0.46227,1.69036 0.71781,2.35227 0.25644,0.66423 0.13181,1.07716 0.48692,1.7243 0.3054,1.64861 0.33905,3.24559 0.63789,4.85422 0.29884,1.60863 0.86286,3.22892 0.69527,4.83895 -0.33773,0.96345 0.0215,1.82036 -0.40709,2.61151 0.49891,0.65868 1.09995,0.83177 1.84388,0.32554 l -0.0836,-1.76805 c 0.13469,-0.71092 0.003,-1.39187 -0.0905,-2.37152 -0.0249,-1.24893 0.29145,-2.14822 0.22992,-4.21539 -0.0691,-2.32218 -0.66918,-3.00386 -0.82585,-4.54943 0.076,-0.55364 7.5e-4,-1.31849 -0.20267,-1.79315 -0.007,-1.35243 0.13592,-3.88634 0.13592,-3.88634 z"
         id="path1009"
         inkscape:connector-curvature="0"
         sodipodi:nodetypes="cscscccccscccc" />
      <path
         style="fill:#3d3b3a;fill-opacity:1;stroke:none;stroke-width:0.0034608;stroke-linecap:butt;stroke-linejoin:miter;stroke-miterlimit:4;stroke-dasharray:none;stroke-opacity:1"
         d="m 232.69727,222.59077 c 0.58989,0.54378 0.90875,0.29067 1.55538,0.0813 0.24457,-0.65556 0.0472,-0.97001 0.22069,-1.38707 l 0.11409,1.13828 -0.0352,0.54584 c 0.0155,0.59929 0.20766,1.1335 0.0285,1.6419 -0.28205,0.70039 -1.57436,0.79708 -2.49704,0.32659 0.0362,-0.76333 -0.10562,-0.80816 0.30392,-1.62501 z"
         id="path1033"
         inkscape:connector-curvature="0"
         sodipodi:nodetypes="ccccccccc" />
      <ellipse
         ry="0.19171514"
         rx="0.56449455"
         cy="222.44893"
         cx="235.05821"
         id="ellipse1097"
         style="opacity:1;fill:#c8c6c6;fill-opacity:1;stroke:none;stroke-width:0.00646051;stroke-linecap:round;stroke-linejoin:bevel;stroke-miterlimit:4;stroke-dasharray:none;stroke-dashoffset:0;stroke-opacity:1;paint-order:normal"
         transform="rotate(0.3672095)" />
      <ellipse
         style="opacity:1;fill:#dbd9d8;fill-opacity:1;stroke:none;stroke-width:0.00228174;stroke-linecap:round;stroke-linejoin:bevel;stroke-miterlimit:4;stroke-dasharray:none;stroke-dashoffset:0;stroke-opacity:1;paint-order:normal"
         id="ellipse1101"
         cx="247.86041"
         cy="207.08475"
         rx="0.18106429"
         ry="0.074555889"
         transform="rotate(4.0353896)" />
      <path
         sodipodi:nodetypes="cc"
         inkscape:connector-curvature="0"
         id="path1131"
         d="m 232.96648,221.91915 c 0.82041,-0.47805 1.30908,0.0879 1.39885,0.36283"
         style="fill:none;stroke:#3d3b3a;stroke-width:0.02407452;stroke-linecap:round;stroke-linejoin:bevel;stroke-miterlimit:4;stroke-dasharray:none;stroke-opacity:1" />
    </g>
    <path
       sodipodi:nodetypes="cccccc"
       inkscape:connector-curvature="0"
       id="path995"
       d="m 167.33281,-155.7018 c -5.85066,10.5971 -1.39689,17.33001 1.50022,24.64667 -6.36117,-3.29472 -13.38083,-6.21315 -12.00197,-13.93075 -3.92935,8.46564 -3.71274,15.89478 1.50032,22.07484 -14.27644,-4.37016 -20.07237,-12.31111 -23.57516,-21.21753 z"
       style="fill:#2c2215;fill-opacity:1;stroke:none;stroke-width:0.065;stroke-linecap:butt;stroke-linejoin:miter;stroke-miterlimit:4;stroke-dasharray:none;stroke-opacity:1" />
    <path
       sodipodi:nodetypes="ccccccccccccccccccccc"
       inkscape:connector-curvature="0"
       id="path1003"
       d="m 105.04307,-120.2874 c -5.086591,2.4023 -25.081391,6.51117 -25.131416,6.05017 -1.16346,0.93065 -4.886584,1.6288 -4.886584,1.6288 -6.772239,10.78875 -6.365882,23.820745 -3.257793,37.697065 1.976304,1.581109 -3.820216,13.884272 -4.188538,13.961851 0.698219,0.930656 4.653974,3.025183 4.653974,3.025183 l 2.369809,3.487344 c 2.688105,-2.584005 3.504743,-2.067769 5.030508,-2.326944 3.415758,1.275562 5.954721,3.383953 12.942278,-0.698241 l 5.021323,-0.927897 -3.490405,-8.144493 c 0.26269,-1.183291 0.0703,-2.063236 2.094226,-4.421164 4.343778,6.21587 8.687478,10.738757 13.031198,15.12532 0,0 67.01693,-23.0371 67.24963,-25.131425 0.23239,-2.094227 -4.18855,-24.433169 -4.18855,-24.433169 l -6.51551,-7.44635 -15.82342,-7.21363 -9.07526,-3.2578 -19.7793,3.49051 -10.70413,-3.02508 z"
       style="fill:#ffffff;fill-opacity:1;stroke:none;stroke-width:0.03528698;stroke-linecap:butt;stroke-linejoin:miter;stroke-miterlimit:4;stroke-dasharray:none;stroke-opacity:1" />
    <path
       sodipodi:nodetypes="ccccc"
       inkscape:connector-curvature="0"
       id="path1005"
       d="m 185.26566,-52.508035 c -0.332,5.045976 0.12688,10.091933 0.65798,15.13789 8.04017,15.089586 5.07105,42.4118232 5.92352,65.487754 l -34.22476,-79.30933 c 8.46018,-2.701216 16.64321,-6.234183 27.64316,-1.316314 z"
       style="fill:#fce3c4;fill-opacity:1;stroke:none;stroke-width:0.14363609px;stroke-linecap:butt;stroke-linejoin:miter;stroke-opacity:1" />
    <path
       sodipodi:nodetypes="ccccccccsc"
       inkscape:connector-curvature="0"
       id="path1007"
       d="m 170.12778,-112.07228 c 1.31628,-0.329 8.88519,2.3036 8.88519,2.3036 6.60092,14.321628 6.52213,31.148276 6.25269,48.046257 l 5.92338,6.252597 -3.9489,3.949006 -0.65798,1.645499 -6.5817,-2.303613 -9.87249,2.961704 c 0,0 -3.94909,-56.60245 -3.29088,-57.91875 0.658,-1.3164 3.29088,-4.9363 3.29088,-4.9363 z"
       style="fill:#ffffff;fill-opacity:1;stroke:none;stroke-width:0.14363609px;stroke-linecap:butt;stroke-linejoin:miter;stroke-opacity:1" />
    <path
       style="fill:none;stroke:#666666;stroke-width:0.50000006;stroke-linecap:butt;stroke-linejoin:miter;stroke-miterlimit:4;stroke-dasharray:1.50000009, 0.50000004;stroke-dashoffset:0;stroke-opacity:1"
       d="m 173.16102,-60.359147 c 7.41394,2.60658 9.3887,0.162578 12.30711,-1.653802"
       id="path1203"
       inkscape:connector-curvature="0"
       sodipodi:nodetypes="cc" />
    <path
       sodipodi:nodetypes="cccccccccccccccccccccccccc"
       inkscape:connector-curvature="0"
       id="path1011"
       d="m 111.9245,-123.96656 c 2.85413,11.23125 3.19874,4.36348 5.44348,14.98533 17.93296,1.09998 11.74874,11.441393 31.05149,7.89893 -2.13195,-5.76292 21.45697,-6.32976 16.56013,-12.64564 l 7.9118,0.46583 c 2.39602,6.97679 3.17537,13.14508 4.42125,19.54668 3.01662,20.105474 2.02669,26.684049 -3.95593,33.97386 -0.29581,12.237546 0.93364,22.568135 5.5848,28.621818 17.06069,42.2424 20.13305,145.875332 23.26973,182.852842 -4.64737,3.3746 -10.14284,1.66117 -15.35802,1.62888 l -1.16346,5.11931 c -4.88211,2.25331 -26.36816,-1.36237 -24.4333,-2.32694 -0.54631,1.28873 -17.1805,7.18821 -18.3831,5.58473 l -17.68495,-0.93066 -6.51559,-3.95581 c 0,0 -5.81746,-0.46583 -6.28292,0.46582 -0.46582,0.93066 -2.55964,4.42127 -2.55964,4.42127 -9.929421,0.33504 -19.074511,1.71544 -30.71604,-0.23241 l -4.421386,-3.02506 -11.169453,-2.55965 C 76.803781,115.7396 88.407793,22.703233 109.36495,-19.251305 l 7.67896,-20.942771 -9.30797,-17.452342 c 3.02057,-8.260499 7.84255,-15.210834 4.42128,-28.156401 l -6.5155,-34.671991 z"
       style="fill:#373832;fill-opacity:1;stroke:none;stroke-width:0.08957466;stroke-linecap:butt;stroke-linejoin:miter;stroke-miterlimit:4;stroke-dasharray:none;stroke-opacity:1" />
    <path
       inkscape:connector-curvature="0"
       id="path1013"
       d="m 112.38991,-121.63962 c 0,-2.55965 -5.35199,-14.19455 -5.35199,-14.19455 l 9.07512,-2.32694 9.30799,5.35202 0.93065,2.79237 7.67905,-2.32704 3.72321,7.91178 2.09424,-7.21364 4.42126,-1.39618 c 0,0 -3.49052,-2.79237 -2.55967,-2.55966 0.93067,0.2324 6.28279,3.49041 6.28279,3.49041 l -8.14438,12.79837 -14.65989,6.05017 z"
       style="fill:#ffffff;fill-opacity:1;stroke:none;stroke-width:0.14363609px;stroke-linecap:butt;stroke-linejoin:miter;stroke-opacity:1" />
    <path
       sodipodi:nodetypes="cccscccccccccccccccccccc"
       inkscape:connector-curvature="0"
       id="path1015"
       d="m 141.03015,-123.80427 c -1.16346,-0.93065 -3.49042,-1.86161 -3.49042,-1.86161 l -5.3521,1.62889 c 0,0 -6.74819,-0.23239 -7.67898,-0.23239 -0.93065,0 -8.14446,3.25779 -8.14446,3.25779 l 4.18854,13.49642 -4.88661,8.609914 4.654,0.698243 c 0,0 0.69822,4.421268 1.3962,3.490512 0.69822,-0.930654 3.95579,-5.584739 3.95579,-5.584739 h 3.95587 l 1.16346,3.955739 h 6.05018 c -2.4313,-7.925059 -0.9347,-13.886379 0.23237,-20.011909 6.96456,6.36035 7.93658,12.7208 10.9368,19.081153 l 4.42125,0.698244 3.95583,-7.213637 9.07525,2.55966 -2.09431,-5.35203 -10.93677,-7.91177 0.46582,-4.18856 c 0,0 0.46585,-4.18855 -0.46582,-4.88659 -0.93066,-0.69825 -10.23872,-1.6289 -10.23872,-1.6289 z"
       style="fill:#781737;stroke:none;stroke-width:0.08957466;stroke-linecap:butt;stroke-linejoin:miter;stroke-miterlimit:4;stroke-dasharray:none;stroke-opacity:1" />
    <path
       sodipodi:nodetypes="cc"
       inkscape:connector-curvature="0"
       id="path1019"
       d="m 117.74204,-39.730089 c 21.14167,4.662258 43.09799,11.128428 55.84735,-2.792355"
       style="fill:#373832;stroke:#32332d;stroke-width:1.00000012;stroke-linecap:butt;stroke-linejoin:miter;stroke-miterlimit:4;stroke-dasharray:1.00000007, 1.00000007;stroke-dashoffset:0;stroke-opacity:1" />
    <path
       style="opacity:1;fill:#191c21;fill-opacity:1;stroke:none;stroke-width:0.50000006;stroke-linecap:round;stroke-linejoin:round;stroke-miterlimit:4;stroke-dasharray:1.50000004, 0.50000001;stroke-dashoffset:0;stroke-opacity:1"
       d="m 126.46779,-16.453767 c -1.42078,0.125802 -2.59784,1.23183 -2.7645,2.706598 l -1.67868,14.8433423 h 6.16339 l 1.59998,-14.1555373 c 0.19062,-1.68547 -1.0138,-3.196496 -2.69924,-3.386987 -0.21067,-0.02377 -0.41794,-0.02538 -0.62095,-0.0089 z"
       id="rect1849"
       inkscape:connector-curvature="0" />
    <path
       sodipodi:nodetypes="cc"
       inkscape:connector-curvature="0"
       id="path1021"
       d="m 106.28545,-6.4361558 c 7.59183,6.93131748 19.52494,7.35055854 31.59204,7.5688905"
       style="fill:none;stroke:#32332d;stroke-width:1.00000012;stroke-linecap:butt;stroke-linejoin:miter;stroke-miterlimit:4;stroke-dasharray:1.00000007, 1.00000007;stroke-dashoffset:0;stroke-opacity:1" />
    <path
       sodipodi:nodetypes="cc"
       inkscape:connector-curvature="0"
       id="path1023"
       d="m 184.27836,-5.448962 c -3.02117,5.68576355 -7.81015,4.3005222 -11.84698,5.92350205"
       style="fill:none;stroke:#32332d;stroke-width:1.00000012;stroke-linecap:butt;stroke-linejoin:miter;stroke-miterlimit:4;stroke-dasharray:1.00000007, 1.00000007;stroke-dashoffset:0;stroke-opacity:1" />
    <path
       sodipodi:nodetypes="ccc"
       inkscape:connector-curvature="0"
       id="path1025"
       d="M 136.23199,3.4363179 C 137.60463,7.4275692 124.91857,41.022929 123.06873,39.635597 111.35212,38.320708 99.411651,37.285731 92.134732,30.42121"
       style="fill:none;stroke:#32332d;stroke-width:1.00000012;stroke-linecap:butt;stroke-linejoin:miter;stroke-miterlimit:4;stroke-dasharray:1.00000007, 1.00000007;stroke-dashoffset:0;stroke-opacity:1" />
    <path
       sodipodi:nodetypes="ccc"
       inkscape:connector-curvature="0"
       id="path1027"
       d="m 173.74768,4.4235474 c 0.20914,13.2139646 2.80404,24.9964776 8.72483,34.7834446 l 11.34926,-2.533191"
       style="fill:none;stroke:#32332d;stroke-width:1.00000012;stroke-linecap:butt;stroke-linejoin:miter;stroke-miterlimit:4;stroke-dasharray:1.00000007, 1.00000007;stroke-dashoffset:0;stroke-opacity:1" />
    <path
       inkscape:connector-curvature="0"
       id="path1035"
       d="m 117.09682,-118.92673 c 1.7606,-2.4189 11.11626,-21.88167 11.11626,-21.88167 l -31.909302,-17.6749 -5.024537,25.20536 z"
       style="fill:#2b2319;fill-opacity:1;stroke:none;stroke-width:0.13058205px;stroke-linecap:butt;stroke-linejoin:miter;stroke-opacity:1" />
    <path
       sodipodi:nodetypes="cccccccccccc"
       inkscape:connector-curvature="0"
       id="path1037"
       d="m 106.84694,-145.59579 c -6.65966,-0.15593 -10.052176,-4.58868 -11.887852,-11.0587 -2.26021,-7.35379 -0.652939,-11.15217 5.459682,-10.80717 l 1.66695,-31.09868 31.17633,-14.26065 35.6574,23.03155 -1.09878,14.49689 0.009,6.36498 c -1.01447,20.52814 -4.54068,28.85776 -8.92143,33.03705 -5.3223,5.44922 -13.12676,9.75478 -20.96466,14.04495 l -3.73391,-1.60042 c -10.14897,-3.85513 -19.93283,-8.96287 -27.36178,-22.1498 z"
       style="fill:#fce3c4;fill-opacity:1;stroke:none;stroke-width:0.03032624px;stroke-linecap:butt;stroke-linejoin:miter;stroke-opacity:1" />
    <path
       style="fill:none;stroke:#2c1e0c;stroke-width:0.206;stroke-linecap:round;stroke-linejoin:bevel;stroke-miterlimit:4;stroke-dasharray:none;stroke-opacity:1"
       d="m 160.00093,-176.82989 c -4.16459,-1.72206 -8.23795,-2.53188 -11.97719,0"
       id="path1039"
       inkscape:connector-curvature="0"
       sodipodi:nodetypes="cc" />
    <path
       style="fill:none;stroke:#000000;stroke-width:1.00000012;stroke-linecap:butt;stroke-linejoin:miter;stroke-miterlimit:4;stroke-dasharray:none;stroke-opacity:1"
       d="m 115.16901,-161.68521 -12.7123,-2.95508"
       id="path1199"
       inkscape:connector-curvature="0"
       sodipodi:nodetypes="cc" />
    <path
       sodipodi:nodetypes="ccccccccccccccccccccccccccccccccccccccccccccccc"
       inkscape:connector-curvature="0"
       id="path1041"
       d="m 115.81684,-198.53468 c -4.44732,8.10072 -10.20783,14.92529 -11.15628,26.42608 0.12981,11.78602 3.44653,19.75414 7.09009,27.33199 -4.81849,-2.69538 -9.71103,-4.78739 -14.084395,-11.11082 l 2.182952,8.80772 18.075763,20.03133 c 1.11165,2.14594 1.99895,4.32709 1.0701,6.79448 l -1.60636,6.22121 8.54935,5.0196 -2.67165,13.352136 5.99372,9.003111 -7.50349,11.725753 4.88098,6.990075 -9.10555,6.606542 -0.35113,10.400404 c 4.00825,9.581928 9.63877,19.466196 1.02171,26.69642 0.19513,-1.821155 1.59709,-3.832461 -0.82501,-5.241451 -1.30242,2.641749 -2.25287,3.177501 -3.30167,4.30004 0.59561,-1.486545 1.41751,-3.008579 0.52318,-4.260191 l -0.97089,0.153144 -0.96084,2.737638 c 0,0 -7.63228,0.803886 -7.36625,-0.04039 0.26562,-0.837088 0.37024,-5.230694 0.37024,-5.230694 -1.20603,0.528229 -2.67435,2.206408 -4.50761,5.484641 l 3.33496,-11.666074 -6.672128,1.846601 c 6.936568,-3.239884 12.016018,-8.17487 14.002888,-15.932602 0,0 2.97589,-7.630686 2.46529,-8.346024 -0.51012,-0.715338 -5.98306,-10.198474 -5.52288,-11.06665 0.45981,-0.869281 5.29479,-6.802134 5.29479,-6.802134 l -7.84326,-8.115014 3.57816,-6.332983 -11.459765,-8.341178 3.772215,-6.36347 c -11.629753,-3.63801 -21.023237,-11.32321 -26.880323,-25.4086 0.516151,-7.37602 3.734184,-15.17733 7.313726,-23.03568 -12.294513,-5.60869 -1.595089,-27.82418 5.821078,-47.66837 11.837529,-30.55115 35.935179,-30.13582 54.546279,-26.2972 25.10091,10.14234 26.73365,23.38199 31.95385,36.14826 6.31347,22.35575 1.85346,36.46077 -3.70703,49.72275 0.34311,-4.43837 0.36323,-8.95028 -2.00718,-14.00772 1.0413,3.72061 -2.64397,8.53587 -8.7508,13.91164 2.87077,-8.88097 4.67604,-17.98096 3.18789,-27.75727 -2.89075,-4.38927 -8.19914,-9.1825 -15.9936,-14.39105 -1.30976,6.05882 3.61216,9.66523 6.40039,14.11145 -14.66089,-5.86243 -31.59487,-8.26754 -38.17959,-26.41411 z"
       style="fill:#402e1a;fill-opacity:1;stroke:none;stroke-width:0.03032624px;stroke-linecap:butt;stroke-linejoin:miter;stroke-opacity:1" />
    <rect
       style="opacity:1;fill:#808080;fill-opacity:1;stroke:none;stroke-width:0.18014154;stroke-linecap:round;stroke-linejoin:bevel;stroke-miterlimit:4;stroke-dasharray:none;stroke-dashoffset:0;stroke-opacity:1;paint-order:normal"
       id="rect1043"
       width="15.856333"
       height="2.692585"
       x="191.14577"
       y="-120.62906"
       ry="1.3462925"
       transform="rotate(-26.344118)" />
    <rect
       transform="rotate(-26.344118)"
       ry="1.3462925"
       y="-115.43728"
       x="191.51379"
       height="2.692585"
       width="15.856333"
       id="rect1045"
       style="opacity:1;fill:#808080;fill-opacity:1;stroke:none;stroke-width:0.18014154;stroke-linecap:round;stroke-linejoin:bevel;stroke-miterlimit:4;stroke-dasharray:none;stroke-dashoffset:0;stroke-opacity:1;paint-order:normal" />
    <ellipse
       transform="rotate(-3.3726148)"
       ry="3.1732419"
       rx="6.7695823"
       cy="-141.19899"
       cx="131.95714"
       id="ellipse1047"
       style="opacity:0.80500034;fill:#fdeeda;fill-opacity:1;stroke:none;stroke-width:0.03208003;stroke-linecap:round;stroke-linejoin:bevel;stroke-miterlimit:4;stroke-dasharray:none;stroke-dashoffset:0;stroke-opacity:1;paint-order:normal" />
    <ellipse
       style="opacity:0.80500034;fill:#fdeeda;fill-opacity:1;stroke:none;stroke-width:0.03208003;stroke-linecap:round;stroke-linejoin:bevel;stroke-miterlimit:4;stroke-dasharray:none;stroke-dashoffset:0;stroke-opacity:1;paint-order:normal"
       id="ellipse1049"
       cx="163.56125"
       cy="-139.90358"
       rx="6.7695823"
       ry="3.1732419"
       transform="rotate(-3.3726148)" />
    <path
       sodipodi:nodetypes="ccc"
       inkscape:connector-curvature="0"
       id="path1051"
       d="m 140.45457,-158.60726 1.93505,3.63258 c -0.10471,1.24597 -1.20413,2.03366 -2.60626,2.682"
       style="fill:none;stroke:#fce3c4;stroke-width:0.08143385;stroke-linecap:butt;stroke-linejoin:miter;stroke-miterlimit:4;stroke-dasharray:none;stroke-opacity:1" />
    <g
       transform="matrix(1.6134688,-0.05942821,0.05942821,1.6134688,-22.784869,-338.24151)"
       id="g1057"
       style="stroke-width:0.09939233">
      <ellipse
         ry="4.1751294"
         rx="2.8544252"
         cy="113.46472"
         cx="105.2729"
         id="ellipse1053"
         style="opacity:1;fill:#f9f9f9;fill-opacity:1;stroke:none;stroke-width:0.01639974;stroke-linecap:round;stroke-linejoin:bevel;stroke-miterlimit:4;stroke-dasharray:none;stroke-dashoffset:0;stroke-opacity:1;paint-order:normal" />
      <path
         inkscape:connector-curvature="0"
         style="opacity:1;fill:#333333;fill-opacity:1;stroke:none;stroke-width:0.06198326;stroke-linecap:round;stroke-linejoin:bevel;stroke-miterlimit:4;stroke-dasharray:none;stroke-dashoffset:0;stroke-opacity:1;paint-order:normal"
         d="m 397.88281,413.0625 a 10.788379,15.780017 0 0 0 -10.78906,15.78125 10.788379,15.780017 0 0 0 10.78906,15.7793 10.788379,15.780017 0 0 0 10.78711,-15.7793 10.788379,15.780017 0 0 0 -0.68945,-5.53125 4.991638,4.991638 0 0 1 -3.98047,1.98828 4.991638,4.991638 0 0 1 -4.99023,-4.99219 4.991638,4.991638 0 0 1 4.44531,-4.95507 10.788379,15.780017 0 0 0 -5.57227,-2.29102 z"
         id="path1055"
         transform="scale(0.26458333)" />
    </g>
    <g
       id="g1075"
       transform="matrix(1.6134688,-0.05942821,0.05942821,1.6134688,-52.912961,-338.24151)"
       style="stroke-width:0.09939233">
      <ellipse
         style="opacity:1;fill:#f9f9f9;fill-opacity:1;stroke:none;stroke-width:0.01639974;stroke-linecap:round;stroke-linejoin:bevel;stroke-miterlimit:4;stroke-dasharray:none;stroke-dashoffset:0;stroke-opacity:1;paint-order:normal"
         id="ellipse1071"
         cx="105.2729"
         cy="113.46472"
         rx="2.8544252"
         ry="4.1751294" />
      <path
         transform="scale(0.26458333)"
         id="path1073"
         d="m 397.88281,413.0625 a 10.788379,15.780017 0 0 0 -10.78906,15.78125 10.788379,15.780017 0 0 0 10.78906,15.7793 10.788379,15.780017 0 0 0 10.78711,-15.7793 10.788379,15.780017 0 0 0 -0.68945,-5.53125 4.991638,4.991638 0 0 1 -3.98047,1.98828 4.991638,4.991638 0 0 1 -4.99023,-4.99219 4.991638,4.991638 0 0 1 4.44531,-4.95507 10.788379,15.780017 0 0 0 -5.57227,-2.29102 z"
         style="opacity:1;fill:#333333;fill-opacity:1;stroke:none;stroke-width:0.06198326;stroke-linecap:round;stroke-linejoin:bevel;stroke-miterlimit:4;stroke-dasharray:none;stroke-dashoffset:0;stroke-opacity:1;paint-order:normal"
         inkscape:connector-curvature="0" />
    </g>
    <path
       sodipodi:nodetypes="cc"
       inkscape:connector-curvature="0"
       id="path1089"
       d="m 116.18658,-177.61989 c 4.16463,-1.72206 8.23798,-2.53188 11.97719,0"
       style="fill:none;stroke:#2c1e0c;stroke-width:0.206;stroke-linecap:round;stroke-linejoin:bevel;stroke-miterlimit:4;stroke-dasharray:none;stroke-opacity:1" />
    <path
       style="opacity:1;fill:#ffaaaa;fill-opacity:1;stroke:none;stroke-width:0.0878303;stroke-linecap:round;stroke-linejoin:bevel;stroke-miterlimit:4;stroke-dasharray:none;stroke-dashoffset:0;stroke-opacity:1;paint-order:normal"
       d="m 149.93889,-138.90947 c 0,0 -4.73983,3.93418 -10.66683,3.93419 -5.92704,0 -10.79683,-3.93419 -10.79683,-3.93419 0,0 4.7641,0.80126 10.69116,0.80126 5.92699,0 10.7725,-0.80126 10.7725,-0.80126 z"
       id="ellipse1091"
       inkscape:connector-curvature="0"
       sodipodi:nodetypes="cscsc" />
    <path
       inkscape:transform-center-y="2.9086285"
       inkscape:transform-center-x="23.463645"
       sodipodi:nodetypes="ccc"
       inkscape:connector-curvature="0"
       id="path1093"
       d="m 173.31868,-59.796511 c -10.75527,8.78507 -40.50949,8.734076 -61.89351,0.614732 21.409,5.299796 47.78778,5.312173 61.89351,-0.614732 z"
       style="fill:#2a2b27;fill-opacity:1;stroke:none;stroke-width:0.065;stroke-linecap:butt;stroke-linejoin:miter;stroke-miterlimit:4;stroke-dasharray:none;stroke-opacity:1" />
    <path
       sodipodi:nodetypes="cc"
       inkscape:connector-curvature="0"
       id="path1103"
       d="m 73.032381,-72.117385 c 6.67907,4.260086 13.614319,3.653299 20.574623,2.571827"
       style="fill:none;stroke:#666666;stroke-width:0.50000006;stroke-linecap:butt;stroke-linejoin:miter;stroke-miterlimit:4;stroke-dasharray:1.50000009, 0.50000004;stroke-dashoffset:0;stroke-opacity:1" />
    <path
       sodipodi:nodetypes="ccc"
       inkscape:connector-curvature="0"
       id="path1105"
       d="m 99.822277,-116.05277 c -11.133381,-6.04382 -23.094546,-11.33085 -14.788065,-35.14838 -1.050498,14.16246 3.27127,26.12706 14.788065,35.14838 z"
       style="fill:#fdedd9;fill-opacity:0.34818941;stroke:none;stroke-width:0.065;stroke-linecap:butt;stroke-linejoin:miter;stroke-miterlimit:4;stroke-dasharray:none;stroke-opacity:1" />
    <path
       inkscape:connector-curvature="0"
       id="path1109"
       d="m 104.96592,-106.19406 -2.57184,5.35796 7.07249,4.50065 -4.92928,-4.92935 z"
       style="fill:#fdedd9;fill-opacity:0.34818941;stroke:none;stroke-width:0.065;stroke-linecap:butt;stroke-linejoin:miter;stroke-miterlimit:4;stroke-dasharray:none;stroke-opacity:1" />
    <path
       style="fill:#fdedd9;fill-opacity:0.34818941;stroke:none;stroke-width:0.07206525;stroke-linecap:butt;stroke-linejoin:miter;stroke-miterlimit:4;stroke-dasharray:none;stroke-opacity:1"
       d="m 111.24638,-91.620299 -2.85133,5.940398 7.84126,4.98982 -5.46512,-5.465109 z"
       id="path1111"
       inkscape:connector-curvature="0" />
    <path
       sodipodi:nodetypes="ccccccccccc"
       inkscape:connector-curvature="0"
       id="path1113"
       d="m 100.46517,-211.42481 c -3.781579,5.9736 -7.541335,11.94438 -6.858166,17.35989 1.835956,-4.94253 5.237093,-8.05887 10.501596,-9.0014 -4.10393,3.59344 -4.05876,8.37238 -4.286323,13.07344 1.722153,-4.47791 4.717253,-5.13691 8.144053,-4.50075 -8.421253,7.84186 -4.59401,16.14481 -7.50116,22.93215 -0.590585,-4.44159 -2.502632,-8.31663 0.64291,-14.35935 -3.335892,1.49408 -6.575443,3.27721 -8.787096,8.14409 0.245332,-4.80249 -0.02157,-9.67811 4.072039,-13.93075 -4.816271,0.82702 -7.32621,3.96116 -8.144077,8.78709 0.875308,-10.9935 2.878778,-21.4601 12.216224,-28.50441 z"
       style="fill:#fdedd9;fill-opacity:0.34818941;stroke:none;stroke-width:0.065;stroke-linecap:butt;stroke-linejoin:miter;stroke-miterlimit:4;stroke-dasharray:none;stroke-opacity:1" />
    <path
       style="fill:#ffffff;fill-opacity:1;stroke:none;stroke-width:0.065;stroke-linecap:butt;stroke-linejoin:miter;stroke-miterlimit:4;stroke-dasharray:none;stroke-opacity:1"
       d="m 149.93921,-138.90924 c 0,0 -4.85762,0.58061 -10.78459,0.5806 -5.53135,0 -9.87946,-0.48925 -10.45681,-0.5569 -0.0293,0.0175 -0.0617,0.0316 -0.091,0.0494 7.1e-4,4.2e-4 0.0107,0.003 0.0107,0.004 6.29465,1.77194 15.71425,1.96528 21.15064,0.0217 0.0252,-0.0155 0.17566,-0.0987 0.17566,-0.0987 z"
       id="path1117"
       inkscape:connector-curvature="0" />
    <path
       inkscape:transform-center-y="-0.31446014"
       inkscape:transform-center-x="1.6344053e-05"
       d="m 142.14688,-146.53336 -2.09373,0.57997 -2.09373,-0.57997 0.5446,-2.1032 1.54913,-1.52324 1.54913,1.52324 z"
       inkscape:randomized="0"
       inkscape:rounded="-3.1225e-17"
       inkscape:flatsided="false"
       sodipodi:arg2="1.5707963"
       sodipodi:arg1="0.52359878"
       sodipodi:r2="1.7887805"
       sodipodi:r1="2.4176302"
       sodipodi:cy="-147.74217"
       sodipodi:cx="140.05315"
       sodipodi:sides="3"
       id="path1119"
       style="opacity:1;fill:#facc94;fill-opacity:1;stroke:none;stroke-width:0.065;stroke-linecap:round;stroke-linejoin:bevel;stroke-miterlimit:4;stroke-dasharray:none;stroke-dashoffset:0;stroke-opacity:1;paint-order:normal"
       sodipodi:type="star" />
    <path
       sodipodi:nodetypes="ccccccccccc"
       inkscape:connector-curvature="0"
       id="path1121"
       d="m 149.97935,-199.57108 c 8.89727,6.79841 13.11852,16.71417 17.27637,26.67218 -0.81595,-5.39186 1.11418,-10.39135 -4.84958,-16.51858 3.84318,1.21679 6.70837,3.13203 7.72887,6.36498 0.34812,-4.32559 -0.95477,-8.10103 -4.24325,-11.21445 3.94957,1.82258 6.39423,7.85916 8.33502,15.30621 0.18113,-13.17415 -3.12076,-24.60673 -11.82064,-33.34029 0.36825,3.7525 2.2482,7.25317 0.45476,11.36606 -2.26012,-3.68932 -5.11969,-4.98087 -8.18352,-5.45575 1.97571,3.44885 5.46432,6.05711 4.09177,11.36607 -2.9299,-2.65433 -5.8599,-3.90543 -8.7898,-4.54643 z"
       style="fill:#fdedd9;fill-opacity:0.34818941;stroke:none;stroke-width:0.065;stroke-linecap:butt;stroke-linejoin:miter;stroke-miterlimit:4;stroke-dasharray:none;stroke-opacity:1" />
    <path
       style="fill:#2a2b27;fill-opacity:1;stroke:none;stroke-width:0.06500002;stroke-linecap:butt;stroke-linejoin:miter;stroke-miterlimit:4;stroke-dasharray:none;stroke-opacity:1"
       d="m 135.01328,70.79528 -29.52123,91.16864 c 1.44049,-0.081 2.87201,-0.17423 4.33613,-0.22357 0,0 0.73555,-1.28075 1.357,-2.33962 v -1.16984 z"
       id="path1123"
       inkscape:connector-curvature="0" />
    <path
       style="fill:#2a2b27;fill-opacity:1;stroke:none;stroke-width:0.26458335px;stroke-linecap:butt;stroke-linejoin:miter;stroke-opacity:1"
       d="m 155.43588,81.573283 6.21828,71.369927 -0.55632,3.33271 c 0.0265,-0.0332 0.14921,-0.0906 0.16136,-0.11954 -0.54363,0.27094 0.85838,0.7524 3.12474,1.253 z"
       id="path1125"
       inkscape:connector-curvature="0" />
    <path
       style="fill:#2a2b27;fill-opacity:1;stroke:none;stroke-width:0.26458335px;stroke-linecap:butt;stroke-linejoin:miter;stroke-opacity:1"
       d="m 171.16359,68.076101 16.9339,81.227689 -1.50259,4.50249 0.15583,0.0216 0.10418,-0.46274 c 1.26603,0.009 2.54893,0.11455 3.83183,0.22357 z"
       id="path1127"
       inkscape:connector-curvature="0" />
    <path
       sodipodi:nodetypes="ccccc"
       inkscape:connector-curvature="0"
       id="path1876"
       d="m 148.16731,-86.745498 17.77622,-6.09204 c 1.46777,0.295324 4.07751,0.293444 2.86607,2.263262 l -22.76566,61.390134 c -13.79573,-19.153294 -5.88539,-55.283308 2.12337,-57.561356 z"
       style="fill:#f8f8f0;fill-opacity:0.99164345;stroke:none;stroke-width:0.26458335px;stroke-linecap:butt;stroke-linejoin:miter;stroke-opacity:1" />
    <path
       sodipodi:nodetypes="ccccc"
       inkscape:connector-curvature="0"
       id="path1872"
       d="m 129.99941,-92.138045 13.18432,5.984821 c 1.24082,0.455598 2.06678,1.923437 1.91033,3.10805 l -23.7071,-7.427972 z"
       style="fill:#f8f8f0;fill-opacity:0.99164345;stroke:none;stroke-width:0.26458335px;stroke-linecap:butt;stroke-linejoin:miter;stroke-opacity:1" />
    <path
       style="fill:#b4b8a3;fill-opacity:0.99442899;stroke:none;stroke-width:0.26458335px;stroke-linecap:butt;stroke-linejoin:miter;stroke-opacity:1"
       d="m 170.66385,-93.333962 -26.25831,9.852147 -23.70108,-7.348435 3.677,50.41064 21.42247,6.268745 c 1.1346,-0.0856 2.3077,-0.186506 3.42632,-0.227302 l 23.64203,-9.05213 z"
       id="path1868"
       inkscape:connector-curvature="0"
       sodipodi:nodetypes="cccccccc" />
    <path
       style="fill:#781737;fill-opacity:1;stroke:none;stroke-width:0.05745323;stroke-linecap:butt;stroke-linejoin:miter;stroke-miterlimit:4;stroke-dasharray:none;stroke-opacity:1"
       d="m 118.3414,-61.941256 c -0.56643,-0.769674 -1.85217,-1.734031 -1.85217,-1.734031 l -3.58638,0.117708 c 0,0 -4.14136,-1.266999 -4.71797,-1.421942 -0.5765,-0.154948 -5.58715,0.662022 -5.58715,0.662022 l 0.3481,9.057233 -4.459876,4.519771 2.766616,1.207038 c 0,0 -0.30388,2.854735 0.28358,2.394447 0.58758,-0.4598 3.38005,-2.800824 3.38005,-2.800824 l 2.45028,0.658005 0.0604,2.643975 3.74768,1.006993 c -0.18716,-5.313674 1.73224,-8.757095 3.47473,-12.35727 3.25536,5.099076 2.7987,9.200696 3.59845,13.639778 l 2.62252,1.168304 3.65099,-3.809856 5.19547,3.095907 -0.40647,-3.663651 -5.45755,-6.721247 0.98601,-2.516904 c 0,0 0.98598,-2.51699 0.52518,-3.104444 -0.45981,-0.587585 -6.071,-2.713098 -6.071,-2.713098 z"
       id="path1133"
       inkscape:connector-curvature="0"
       sodipodi:nodetypes="cccscccccccccccccccccccc" />
    <path
       style="fill:#75786b;fill-opacity:0.99442899;stroke:none;stroke-width:0.26458335px;stroke-linecap:butt;stroke-linejoin:miter;stroke-opacity:1"
       d="m 120.70446,-90.83025 3.677,50.41064 21.42247,6.268745 1.3527,-0.101321 -2.75109,-49.229547 z"
       id="path1870"
       inkscape:connector-curvature="0" />
    <path
       sodipodi:type="inkscape:offset"
       inkscape:radius="-1.8812506"
       inkscape:original="M 283.77734 27.992188 L 285.48242 51.371094 L 296.05664 54.464844 L 294.76758 31.400391 L 283.77734 27.992188 z "
       xlink:href="#path1890"
       style="fill:none;stroke:#cdd0c2;stroke-width:0.12270848px;stroke-linecap:butt;stroke-linejoin:miter;stroke-opacity:1"
       id="path1892"
       d="m 285.85547,30.605469 1.4082,19.326172 6.76563,1.980468 -1.06641,-19.101562 z"
       transform="matrix(2.1561943,0,0,2.1561943,-491.17275,-151.18665)" />
    <path
       style="fill:none;stroke:#cdd0c2;stroke-width:0.26458335px;stroke-linecap:butt;stroke-linejoin:miter;stroke-opacity:1"
       d="m 167.17122,-88.034289 -18.90602,7.06294 2.36255,42.269 18.41328,-7.437191 z"
       id="path1884"
       inkscape:connector-curvature="0"
       sodipodi:nodetypes="ccccc" />
    <path
       style="fill:#888b7d;fill-opacity:1;stroke:none;stroke-width:0.26458335px;stroke-linecap:butt;stroke-linejoin:miter;stroke-opacity:1"
       d="m 142.45356,-84.104404 3.97031,-0.141207 2.80638,49.867444 -3.42634,0.227302 z"
       id="path1894"
       inkscape:connector-curvature="0"
       sodipodi:nodetypes="ccccc" />
    <path
       style="fill:#fce3c4;fill-opacity:1;stroke:none;stroke-width:0.14363608px;stroke-linecap:butt;stroke-linejoin:miter;stroke-opacity:1"
       d="m 140.91098,-63.966125 c -3.08889,0.126071 -10.30841,10.627847 -10.30841,10.627847 -28.13815,13.63653 -19.52884,3.475139 -42.87558,16.462105 4.998148,-12.301145 5.084064,-15.018058 5.011611,-20.757071 -5.819488,2.856139 -9.924526,1.809952 -13.059501,0.639247 -1.481883,0.251715 -2.601968,-0.218099 -5.127752,2.121523 l -1.174409,26.716233 c 0.199102,7.428631 1.676457,6.813127 11.704674,6.085794 12.280834,-0.890697 27.224897,-9.494976 48.989327,-25.125996 l 18.375,-0.430097 c 8.91761,1.3e-4 9.61322,-3.705399 11.91687,-5.765104 1.42895,-4.489347 1.37107,-10.428158 -2.5817,-11.61377 0,0 -0.1753,-0.02271 -0.18049,-0.02339 0,0 -13.88558,1.620811 -16.45628,1.755089 -0.94194,0.04918 -2.72975,0.07709 -4.23335,-0.692408 z"
       id="path1001"
       inkscape:connector-curvature="0"
       sodipodi:nodetypes="cccccccscccccsc" />
    <circle
       style="opacity:1;fill:#1d1c25;fill-opacity:0.29805017;stroke:#08080d;stroke-width:0.99999994;stroke-linecap:round;stroke-linejoin:round;stroke-miterlimit:4;stroke-dasharray:none;stroke-opacity:1"
       id="path1193"
       cx="125.15495"
       cy="-160.5872"
       r="10.30283" />
    <circle
       r="10.30283"
       cy="-161.6265"
       cx="154.77472"
       id="circle1195"
       style="opacity:1;fill:#1d1c25;fill-opacity:0.29805017;stroke:#08080d;stroke-width:0.99999994;stroke-linecap:round;stroke-linejoin:round;stroke-miterlimit:4;stroke-dasharray:none;stroke-opacity:1" />
    <path
       style="fill:none;stroke:#000000;stroke-width:1.00000012;stroke-linecap:butt;stroke-linejoin:miter;stroke-miterlimit:4;stroke-dasharray:none;stroke-opacity:1"
       d="m 135.9632,-160.43885 h 8.45122"
       id="path1197"
       inkscape:connector-curvature="0" />
    <path
       style="fill:none;stroke:#666666;stroke-width:0.50000006;stroke-linecap:butt;stroke-linejoin:miter;stroke-miterlimit:4;stroke-dasharray:1.50000009, 0.50000004;stroke-dashoffset:0;stroke-opacity:1"
       d="m 137.46838,-116.80686 c 3.17146,12.4445 3.09262,10.28484 6.15557,16.34848"
       id="path1201"
       inkscape:connector-curvature="0"
       sodipodi:nodetypes="cc" />
    <path
       style="fill:none;stroke:#2a2b27;stroke-width:1.00000012;stroke-linecap:round;stroke-linejoin:miter;stroke-miterlimit:4;stroke-dasharray:none;stroke-opacity:1"
       d="m 126.84666,8.0177518 c 0,0 -1.56167,13.2280102 -2.20467,15.6163852 -0.643,2.388393 -2.75583,2.572111 -2.75583,2.572111"
       id="path1856"
       inkscape:connector-curvature="0" />
    <path
       style="fill:#f2e583;fill-opacity:1;stroke:none;stroke-width:0.26458335px;stroke-linecap:butt;stroke-linejoin:miter;stroke-opacity:1"
       d="m 122.49701,-3.0811194 -0.13066,1.1572418 c 2.11488,1.57946712 5.14696,1.05674263 6.06688,0.8511875 l 0.14403,-1.2805249 c -0.0289,0.00893 -0.0388,0.010722 -0.0684,0.019478 -3.85167,1.46511894 -5.95583,-0.6889306 -6.01189,-0.7472215 z"
       id="path1863"
       inkscape:connector-curvature="0" />
    <path
       inkscape:connector-curvature="0"
       id="path1858"
       d="m 124.74793,4.1071643 c 0.81474,0.092029 1.54467,-0.4896298 1.63674,-1.3043273 l 1.04819,-9.2740532 c -0.98033,-2.040827 -1.96071,-1.3651915 -2.94107,-0.3323943 l -1.04817,9.2740532 c -0.0923,0.8146975 0.48963,1.5446569 1.30431,1.6367216 z"
       style="opacity:1;fill:#b4b8a3;fill-opacity:1;stroke:none;stroke-width:0.49999997;stroke-linecap:round;stroke-linejoin:round;stroke-miterlimit:4;stroke-dasharray:1.50000012, 0.50000004;stroke-dashoffset:0;stroke-opacity:1"
       sodipodi:nodetypes="cccccc" />
  </g>
</svg>
